<svg id="Layer_1" data-name="Layer 1" xmlns="http://www.w3.org/2000/svg" viewBox="0 0 4083.88 430.35">
                <title>gelaccio</title>
                <g id="gelaccio">
                  <g id="gelaccio-underline">
                    <g>
                      <path d="M1077.94,704.51c4,.13-1.14-.91-5.52-1.76l-4.15.8Z" transform="translate(-95.37 -317.74)" fill="#cda980"/>
                      <path d="M1056.28,701.86l-11,.12,8,.22c8.68,1.57-1.31,1.22-4.63,1.11C1062.9,704.51,1053.91,702.34,1056.28,701.86Z" transform="translate(-95.37 -317.74)" fill="#cda980"/>
                      <path d="M1034.69,700.62c-7-.74-5.12.27-2.21.81C1033,701.11,1037.61,701.16,1034.69,700.62Z" transform="translate(-95.37 -317.74)" fill="#cda980"/>
                      <path d="M598.09,684.23c2,.11,4.31.15,4,.39C604.28,684.31,604.74,684.09,598.09,684.23Z" transform="translate(-95.37 -317.74)" fill="#cda980"/>
                      <path d="M602.09,684.62l-1.42.19,1.32-.1C602.12,684.67,602.05,684.65,602.09,684.62Z" transform="translate(-95.37 -317.74)" fill="#cda980"/>
                      <path d="M743.94,692.44c7.91-.58,12.35-.24,19.82-.35l4.16,1.11c8.1-.21,3.59-.82,9.48-1.26,7.37.79,23,.4,26.45.62,2.42.55-3,.57-4.23.82,9.49-.07,8.85-1.07,20.64-.74l.19.29c28.22-.75,63.9,1.38,95.26,2.25a4.37,4.37,0,0,1-2.38-.61c8.27.35,16.85.94,25.48,1.4l13,.71,6.45.34,6.39.38c16.94,1,33,1.57,46.2,1.66-4.47-.34-9.69-.92-15.32-1.47l-17.66-1.7c-6-.56-12.07-1.07-17.76-1.42s-11-.41-15.59-.27c-6.69-1.19-17.15-.83-19.88-2.06-6.49-.58-12-.82-17.08-1s-9.59-.23-14.11-.27-9-.07-13.94-.17-10.28-.15-16.53-.41c-3.58-.34-1.82-.78-2.83-1.31l19.86.37c-4-.36-8.05-.63-12.07-1,2.62-.11,7.12,0,11.15.13s7.58.18,8.33-.25c-8.69,0-20-.32-31-.71-5.49-.19-10.92-.37-15.92-.46s-9.57,0-13.37.21c3.56.23,7.55.32,11.72.44s8.48.28,12.68.49c3.69.49,9.41,1,9,1.46-12.06.22-23.06-.12-34.15-.33L809.58,689c-5.73-.14-11.61-.32-17.79-.27s-14.6-.21-15.62-.72c4.07-.1,1-.56,4.35-.74-8.77.28-.91,1.77-13.57,1.36l1.64-1.68c-2.53.86-6.4.71-10.78.47a90.33,90.33,0,0,0-13.76,0c-3.24-.69,2.75-1.07,9.69-1.09-7.88-.33-8.6.67-14.89.61l6-1.43c-6.7,1.37-12-.32-15.8-.8-.45.35,3.08,1.48-5.32,1.36-3.6-.2-1.76-.56-2.61-.77-.46.35-3.48,1-9,1.09-1-.48,3.68-.77,4-1.27a81.41,81.41,0,0,1-10.62-.18c-7.4.47.48.7-4,1.27-11.36-.25-1.15-1.69-5.34-2.69,8.55-.75,19.58-1.11,24.16-1.48-5.48.12-11,.34-16.43.51,1-.58-11.13-.88-2.45-1.52-8.2-.17-17.25-.11-26.2.18s-17.83.81-25.68,1.21c2.23.15,5.1.21,4.64.58-8.12.52-7.23-.22-8.91-.6-6,.54-5.3,1.48-9,2.33-12.42-.4-14.14.16-24.74-.68l.68,1c-7.51-.53-8.54,1-16.62.71-.46-.2,2.62-.59,5.09-.9-7.13.58-6.62-.54-13.56.15l5.47-1.36c-5.54.3-13.66,1-10.84-.05-9.65,1.59-26.67,1.88-38.73,3.34l.76-.91c-6.19,1.43-23,1.3-28.34,2.92l-.95-.28-12.35,2c-5.64.31-3.82-1.12-4.25-.73-12.34,1.13-22,1.87-30,2.16-1.9,1.31-14.86,2.72-25.18,3.75-24.9,1.84-50.68,4.55-75.88,8.41a650.87,650.87,0,0,0-72.22,15c-6.77,1.62-15.7,5.31-23.87,8.19,5.15-1.28,7.92-2.13,10.67-3s5.49-1.68,10.54-2.95a66.38,66.38,0,0,1,9.11-1.19c2.57-.15,5-.18,8.39-.55l-3.55-.21a45.92,45.92,0,0,1,8.42-2,31.8,31.8,0,0,0,6.79-1.69l0,1.6c2.72-1.36,10.1-2.07,13.16-2.2l2.5-1.54c6.65-.57,11-1,13.13-.33l-.79-.88c2.55.11,25.3-3.82,17.72-1a38.88,38.88,0,0,1,7.75-1.69l.77.89c6-1,12.73-2.06,14.55-1.69a14.88,14.88,0,0,0-5.33,1.75c12.79-1.46,14.06-2.38,15-3.33s1.42-1.91,12.79-3.14l-.19.67,5.7-1.27,6.14.21c8-3.05,32-2.68,45.69-5a88.79,88.79,0,0,1,9.63-.33c3.77,0,8.15,0,13.29-.46l-.74-.94c4.19.2,14-.1,23.82-.24s19.51.11,23.46,1c7.76-1.23-.84-.16-.71-1,15.19-1.91,16.33-.51,24.36-.29,9.37-.93-7.2,0-2.19-1,14.43.07,11.63-1.76,29.45-1.94,1.79.47-4.57.6-6.39,1.05C596.05,693,619.41,693,638,692.09c10.66.12,23.86.08,37.5,0s27.75.3,40.2.62l.46-.36c10.35.92,21.57.14,33.66.58Z" transform="translate(-95.37 -317.74)" fill="#cda980"/>
                      <path d="M893,687.5l-1.94-1-11.46,0C884.18,687.43,886.61,687,893,687.5Z" transform="translate(-95.37 -317.74)" fill="#cda980"/>
                      <polygon points="795.02 372.19 801.02 372.12 791.34 371.66 795.02 372.19" fill="#cda980"/>
                      <polygon points="650.1 366.61 651.58 366.75 662.49 366.44 673.41 366.26 661.75 366.37 650.1 366.61" fill="#cda980"/>
                      <path d="M598.86,683.35c2.48-.53,6.08-.46,8.66-.86l-10.14.78Z" transform="translate(-95.37 -317.74)" fill="#cda980"/>
                      <path d="M500.26,685.49c-3.75,1.79-7.68.54-2.46,1.54C503.86,686.34,498.55,686.12,500.26,685.49Z" transform="translate(-95.37 -317.74)" fill="#cda980"/>
                      <path d="M477.57,689.36a50.26,50.26,0,0,0,7.32-.94C480.22,688.08,480.13,688.87,477.57,689.36Z" transform="translate(-95.37 -317.74)" fill="#cda980"/>
                    </g>
                  </g>

                  <path mask="url(#Mask-G)" id="gelaccio-G" d="M174.87,678.21a59,59,0,0,1-36.78-12.7q-16.56-12.71-26.49-36.8t-9.93-58.11a266.21,266.21,0,0,1,8.83-67.14,334,334,0,0,1,24.09-64.78,291.15,291.15,0,0,1,35.13-55.09q19.86-24.31,41.75-38.31t44-14q15.45,0,24.64,7.1a39.61,39.61,0,0,1,13.25,18.51,72.41,72.41,0,0,1,4,24.32,100.42,100.42,0,0,1-4.6,29.91q-4.59,14.85-12.32,24.75t-16.92,9.9A11.8,11.8,0,0,1,256,443q-3.49-2.79-6.44-10.11,5.15-4.31,12-15.28a145.56,145.56,0,0,0,11.95-24.32q5.15-13.33,5.15-24.1c0-6-1.6-11-4.78-15.07s-8.46-6-15.82-6q-16.55,0-33.84,14.63t-33.1,39a356.81,356.81,0,0,0-28.7,54.45,374.79,374.79,0,0,0-20.23,61.34,257.94,257.94,0,0,0-7.36,59.18q0,39.17,14.35,61.12t34.95,22q14.7,0,27.58-11.62t22.63-30.34a200.81,200.81,0,0,0,15.63-40.68,227.79,227.79,0,0,0,7.36-42.61,169.06,169.06,0,0,0-19.87-3.66,162.88,162.88,0,0,0-18.76-1.08c-3.67,0-7.42.08-11.22.22s-7.9.21-12.32.21Q198,515.95,205,509.7t17.66-6.24a64.53,64.53,0,0,1,22.25,4.09q11.22,4.09,22.44,8.82a154.58,154.58,0,0,0,21.15,7.32l-3.31,13.77q-6.62,22.81-10.85,38.74t-6.62,27.33A165.75,165.75,0,0,0,264.62,624q-.74,9-.73,17.64t.37,17.65q.36,9,.73,20.66-9.19-2.16-14.34-7.32a26.32,26.32,0,0,1-7-12.48,59.67,59.67,0,0,1-1.84-14.63q0-3,.18-6a43.67,43.67,0,0,1,.92-6.45,126.26,126.26,0,0,1-29.79,32.49A62.19,62.19,0,0,1,174.87,678.21Z" transform="translate(-95.37 -317.74)" fill="#c69c6d" stroke="#c69c6d" stroke-miterlimit="10" stroke-width="4"/>
                  <path mask="url(#Mask-e)" id="gelaccio-e" d="M343.71,659.7q-23.18,0-35.32-14.63t-12.13-36.59q0-19.37,8.27-40.67a168.45,168.45,0,0,1,22.26-40,137.75,137.75,0,0,1,30.71-30.56q16.74-11.84,33.29-11.84a30.67,30.67,0,0,1,17.47,5.6q8.28,5.59,8.28,22.38a60.77,60.77,0,0,1-8.28,30.77,94,94,0,0,1-21.7,25.61A122.18,122.18,0,0,1,356.77,588a111.13,111.13,0,0,1-32.56,8.82c-.25,1.72-.49,3.44-.73,5.17a50.2,50.2,0,0,0-.37,6.88,61.65,61.65,0,0,0,.92,9.26,42.54,42.54,0,0,0,3.68,11.62,23.72,23.72,0,0,0,8.64,9.68q5.88,3.87,15.45,3.87,15.45,0,31.08-10.32a128.86,128.86,0,0,0,29.25-27.34A171.66,171.66,0,0,0,434.93,568l6.26,6a165.92,165.92,0,0,1-25.38,45q-15.45,19.15-34,29.91T343.71,659.7Zm-16.19-76.18q9.57-2.16,21.71-8.83a119.46,119.46,0,0,0,23.17-16.78,97.84,97.84,0,0,0,18.21-22.17,47.46,47.46,0,0,0,7.17-24.53c0-3.16-.49-5.45-1.47-6.89s-2.7-2.15-5.15-2.15q-8.84,0-18.21,7.53a110.68,110.68,0,0,0-18.39,19.37,153.52,153.52,0,0,0-16,26.25A183.81,183.81,0,0,0,327.52,583.52Z" transform="translate(-95.37 -317.74)" fill="#c69c6d" stroke="#c69c6d" stroke-miterlimit="10" stroke-width="4"/>
                  <path mask="url(#Mask-l)" id="gelaccio-l" d="M457.74,653.67q-16.92,0-23.73-13.34t-6.8-31.85q0-21.08,6.62-49.5a589.76,589.76,0,0,1,17.47-59.61q10.84-31.2,23.91-61.12T501.33,384q13.05-24.31,24.28-38.74t17.84-14.42q4.41,0,7.54,5.6A51.93,51.93,0,0,1,556,350a64.54,64.54,0,0,1,1.84,14.42q0,11.63-5,30.35a366.28,366.28,0,0,1-14,41.32,486.47,486.47,0,0,1-21.34,46,435.15,435.15,0,0,1-27,44.77,216.31,216.31,0,0,1-31.64,36.8q-1.47,10.75-2.76,21.52A167,167,0,0,0,454.8,605q0,15.93,4.23,23.46T470.61,636q9.57,0,19.32-10.33a132.11,132.11,0,0,0,18.57-26A262.59,262.59,0,0,0,524,567.16l7.73,5.17q-15.45,37.44-34.21,59.39T457.74,653.67Zm6.62-112.76a279.69,279.69,0,0,0,24.28-34.44q11.4-18.93,21.15-39t17.1-38.74a330.76,330.76,0,0,0,11.41-33.57q4-14.85,4.41-23.46a6.1,6.1,0,0,0-.73-3q-3,0-9.75,10.11a300.51,300.51,0,0,0-15.82,27.33q-9,17.22-18.58,39.6T479.44,492.7Q470.62,517.23,464.36,540.91Z" transform="translate(-95.37 -317.74)" fill="#c69c6d" stroke="#c69c6d" stroke-miterlimit="10" stroke-width="4"/>
                  <path mask="url(#Mask-a)" id="gelaccio-a" d="M535,661q-11.78,0-20.41-9.25T505.92,624q0-15.5,5.89-33.15A177.26,177.26,0,0,1,528,556a186.19,186.19,0,0,1,23.55-31.42,122,122,0,0,1,28.14-22.81q14.9-8.61,29.61-8.61,15.45,0,25.93,9.25t10.49,24.32q0,11.63-6.26,16.36t-15.45,3q.74-3.44,1.29-7.53a59.2,59.2,0,0,0,.55-8,36.31,36.31,0,0,0-3.31-15.93q-3.31-6.88-12.87-6.89-10.3,0-21,8.18a108.44,108.44,0,0,0-20.6,21.52,182.21,182.21,0,0,0-17.66,29.27,194.44,194.44,0,0,0-12.14,31.42q-4.41,15.5-4.41,27.55,0,14.64,9.2,14.63,8.45,0,18.57-9.47a163,163,0,0,0,20.6-24.1q10.49-14.62,20-29.91t16.55-26.91c1-1.43,1.84-2.15,2.58-2.15a58.38,58.38,0,0,1,5.88,1.94,27.68,27.68,0,0,1,7.36,4.09,8.29,8.29,0,0,1,3.31,6.89q0,4.31-3.31,11l-7.36,14.85q-4,8.18-7.35,16.36a42.24,42.24,0,0,0-3.32,15.92,23.82,23.82,0,0,0,2.76,11,9.39,9.39,0,0,0,9,5.38q9.18,0,25.19-15.71T686.17,568l5.88,6.89a176.68,176.68,0,0,1-20.78,40.89q-12.33,17.66-25.93,27.76t-27.22,10.11q-14.73,0-21.71-10.54a45.85,45.85,0,0,1-7.72-23,23.81,23.81,0,0,1,.18-2.8,23.64,23.64,0,0,0,.19-2.79Q574,636.45,561.47,648.73T535,661Z" transform="translate(-95.37 -317.74)" fill="#c69c6d" stroke="#c69c6d" stroke-miterlimit="10" stroke-width="4"/>
                  <path mask="url(#Mask-c)" id="gelaccio-c" d="M718.54,664.87q-18.76,0-30.9-14t-12.14-42.4a122.9,122.9,0,0,1,7.17-41.32,145,145,0,0,1,19-36.58q11.76-16.37,26.11-25.83t29.06-9.47q15.45,0,21.89,9.47a36.68,36.68,0,0,1,6.44,21.09,54.75,54.75,0,0,1-5,23.24q-5,10.77-13.43,10.76-7,0-11.4-7.74,4.41-3,8.46-12.06a50,50,0,0,0,4.05-20.66c0-2.86-.5-5-1.47-6.45s-3-2.15-5.89-2.15q-9.57,0-19.68,9.9t-18.94,25.61a177.69,177.69,0,0,0-14.35,32.92A106,106,0,0,0,702,611.49a47.65,47.65,0,0,0,5.52,22.82q5.52,10.32,21,10.33,14.34,0,29.24-9.47t28.14-26.69q13.24-17.21,21-40.89l6.62,6.89a167.28,167.28,0,0,1-24.09,46.27Q774.08,641.19,755.5,653T718.54,664.87Z" transform="translate(-95.37 -317.74)" fill="#c69c6d" stroke="#c69c6d" stroke-miterlimit="10" stroke-width="4"/>
                  <path mask="url(#Mask-cc)" id="gelaccio-cc" d="M839.92,664.87q-18.76,0-30.9-14t-12.14-42.4a122.66,122.66,0,0,1,7.18-41.32A145.26,145.26,0,0,1,823,530.58q11.78-16.37,26.12-25.83t29.06-9.47q15.45,0,21.88,9.47a36.68,36.68,0,0,1,6.44,21.09,54.74,54.74,0,0,1-5,23.24q-5,10.77-13.43,10.76-7,0-11.4-7.74,4.41-3,8.46-12.06a50.17,50.17,0,0,0,4-20.66q0-4.29-1.47-6.45t-5.88-2.15q-9.57,0-19.68,9.9t-18.95,25.61a177.65,177.65,0,0,0-14.34,32.92,106,106,0,0,0-5.52,32.28,47.65,47.65,0,0,0,5.52,22.82q5.5,10.32,21,10.33,14.35,0,29.25-9.47t28.14-26.69q13.25-17.21,21-40.89l6.63,6.89a167.31,167.31,0,0,1-24.1,46.27Q895.46,641.19,876.89,653T839.92,664.87Z" transform="translate(-95.37 -317.74)" fill="#c69c6d" stroke="#c69c6d" stroke-miterlimit="10" stroke-width="4"/>
                  <path mask="url(#Mask-i)" id="gelaccio-i" d="M948.8,653.25q-15.45,0-23.18-11t-7.72-26.9q0-9.9,2.94-25a275.75,275.75,0,0,1,8.28-31.63,249.38,249.38,0,0,1,12.32-31.21q7-14.62,14.9-23.89T972,494.42a10.1,10.1,0,0,1,7.18,3c2.08,2,3.12,4.89,3.12,8.61s-1.9,9.33-5.7,16.79-8.28,16.14-13.43,26a247.2,247.2,0,0,0-13.42,30.77A90.38,90.38,0,0,0,944,610.2q0,14.2,4.41,18.94t12.87,4.74q12.51,0,27-14.64T1018.69,568l4.78,6q-12.13,37.88-32.19,58.53T948.8,653.25Zm43.77-195.42a19.85,19.85,0,0,1-12-3.87q-5.34-3.87-5.34-11.62,0-10.33,9.38-17.43t19.31-7.1a15.37,15.37,0,0,1,10.3,3.44q4.05,3.45,4.05,11.62,0,9-8.09,17T992.57,457.83Z" transform="translate(-95.37 -317.74)" fill="#c69c6d" stroke="#c69c6d" stroke-miterlimit="10" stroke-width="4"/>
                  <path mask="url(#Mask-o)" id="gelaccio-o" d="M1034.5,654.54q-16.18,0-22.43-12.27a60.24,60.24,0,0,1-6.26-27.76,111.44,111.44,0,0,1,3.68-28,134.87,134.87,0,0,1,9.93-26.69,77.81,77.81,0,0,1,14-20.23q7.72-7.74,15.82-7.74a17,17,0,0,1,5.33,1.07,10.46,10.46,0,0,1,4.6,2.8,82.93,82.93,0,0,0-8.64,14.64,192.34,192.34,0,0,0-8.46,20.44,182.58,182.58,0,0,0-6.26,21.95,94.36,94.36,0,0,0-2.39,20q0,9.9,2.94,15.49t9.57,5.6q7.35,0,17.47-9.26A131.76,131.76,0,0,0,1082.69,602,71.68,71.68,0,0,1,1066,575.12q-5.34-15.27-5.34-34.65a71.77,71.77,0,0,1,4.05-22.81,49.53,49.53,0,0,1,12.5-20.23q8.46-8.16,22.08-8.18,15.45,0,21.51,10.12t6.07,24.32q0,15.93-7.17,35.94a263.7,263.7,0,0,1-17.1,38.09,20,20,0,0,0,11.4,3.44q5.52,0,13.24-3A44.16,44.16,0,0,0,1142.1,588q7.17-7.11,11.59-18.73l5.88,5.17q-7.72,21.09-21.15,30.77t-25.93,9.69a43.35,43.35,0,0,1-9.57-1.08,34.45,34.45,0,0,1-8.82-3.23,151.75,151.75,0,0,1-28.14,31Q1050.32,654.54,1034.5,654.54Zm56.65-65.43a168.63,168.63,0,0,0,15.27-32.49q6.07-17.45,6.07-32.07,0-10.75-2.76-15.71t-7.54-4.95q-7.37,0-14.72,11.84t-7.35,29.91a109.29,109.29,0,0,0,2.76,23Q1085.64,581.36,1091.15,589.11Z" transform="translate(-95.37 -317.74)" fill="#c69c6d" stroke="#c69c6d" stroke-miterlimit="10" stroke-width="4"/>
                </g>
                <defs>
                <g id="gelaccio-masks">
                  <polyline id="Mask-gelaccio-underline" points="174.94 413.93 267.28 389.06 372.3 381.26 460.87 375.93 552.97 375.93 624.3 375.93 703.63 375.93 770.49 375.93 870.97 381.26 947.82 383.44 994.3 387.78" fill="none" stroke="#000" stroke-miterlimit="10" stroke-width="34"/>
                  <g id="Mask-gelaccio-G">
                    <mask id="Mask-G">
                        <path class="mask" id="Mask-gelaccio-Gsub" d="M193.67,515.67l72.66,8.66,10,4S263,557.81,259,580.07s-11.78,62.68-7.33,79.63L265,679.93"  fill="none" stroke="#000" stroke-miterlimit="10" stroke-width="34"/>
                        <path class="mask" id="Mask-gelaccio-Gmain" d="M247,440.4c12.46-5.87,32.44-12.85,36-37.4,4.44-30.67,5.88-29.75,1.88-40.15S279,341,265,338.33s-33.33,4-43.33,12S194.33,373,185,383.67s-14.67,16.27-24,34.14a260.85,260.85,0,0,0-18,43.86c-3.33,10.66-9.55,22.1-16.67,47.33-7.33,26-16,56.21-7.34,100.67,6.56,33.66,39.34,55.2,39.34,55.2s36.67,7.53,50-5.17,28-27.37,30.67-42.7l2.68-15.33"  fill="none" stroke="#000" stroke-miterlimit="10" stroke-width="40"/>
                    </mask>
                  </g>
                  <mask id="Mask-e">
                      <path class="mask" id="Mask-gelaccio-e" d="M323,589.11l28.67-9s30.89-17.74,46.11-41.74,21.15-30.7,11.22-36.16c-18-9.9-49.33,1.21-49.33,1.21L339,527.67s-19.34,32.22-24,49.39c-4.81,17.73-6.67,43.27,2.67,56.61s26,23.15,38,19.58,32-16.25,46.66-30.25,24.88-31.33,24.88-31.33L434.93,568"  fill="none" stroke="#000" stroke-miterlimit="10" stroke-width="34"/>
                  </mask>
                  <mask id="Mask-l">
                      <path class="mask" id="Mask-gelaccio-l" d="M471,555.67,492.5,512,519,461.67l18.67-40S571,351,548.33,340.42c-16.39-7.62-44.79,63.25-51.92,80.45L479,463l-14.64,39.17-12.69,49.5S441.19,597,441.19,612.33s18.53,34.67,23.17,33.34,25.49-18.66,31.31-26.62,18-23.08,18-23.08l8.89-15.9L528.33,563"  fill="none" stroke="#000" stroke-miterlimit="10" stroke-width="34"/>
                  </mask>
                  <mask id="Mask-a">
                      <path class="mask" id="Mask-gelaccio-a" d="M629,546.33s17.77-29.25-6-40.72S579.67,512,579.67,512L551,546.5l-13.81,26L523,615s-8.67,20.13,0,30.73S556.24,643,556.24,643l33.43-36L613,577.06l14.31-27.33,3.73,1.71s-29.37,68.89-24.71,78.89,10,16,20,12a97.09,97.09,0,0,0,34-23.33C671.67,607,683,580.07,683,580.07L686.17,568"  fill="none" stroke="#000" stroke-miterlimit="10" stroke-width="34"/>
                  </mask>
                  <mask id="Mask-c">
                      <path class="mask" id="Mask-gelaccio-c" d="M758.33,561.67c8.75-10.8,12.2-16.16,13.42-18.25a8.37,8.37,0,0,0,.86-2.1c1.12-4.18,4.92-20.37-.28-29.32-6-10.33-32-6.39-32-6.39S717.67,523,710.33,537,697,572.54,697,572.54s-9.66,31.79-10.83,44.46,16.16,28.73,16.16,28.73S716.11,663,730.56,657s31.11-18,31.11-18l26-24.67L803,593s3.82-13.89,3.82-19.17"  fill="none" stroke="#000" stroke-miterlimit="10" stroke-width="34"/>
                  </mask>
                  <mask id="Mask-cc">
                      <path class="mask" id="Mask-gelaccio-cc" d="M873,558.17l20-17.33s6-20,0-30.34-32-6.38-32-6.38-22.67,17.38-30,31.38-13.33,35.55-13.33,35.55-4.27,31.23-4.27,44c0,20,9.6,29.24,9.6,29.24s13.78,17.26,28.22,11.26,31.11-18,31.11-18l26-24.66L921,586.17l6.49-20.07"  fill="none" stroke="#000" stroke-miterlimit="10" stroke-width="34"/>
                  </mask>
                  <g id="Mask-gelaccio-i">
                    <mask id="Mask-i">
                        <path class="mask" id="Mask-gelaccio-isub" d="M993,454.82s28-15.15,20-23.15-19.33-6-22.67-3.34-7.33,20-7.33,20l3.33,6.49Z"  fill="none" stroke="#000" stroke-miterlimit="10" stroke-width="34"/>
                        <path class="mask" id="Mask-gelaccio-imain" d="M975.28,492.27,959.67,523s-11.34,24.67-13.34,32.67S931.67,595,930.33,611,943,639.67,943,639.67s21.33,2.66,35.33-6.67,28.48-32.89,28.48-32.89l16.66-26.06v-7.91"  fill="none" stroke="#000" stroke-miterlimit="10" stroke-width="34"/>
                    </mask>
                  </g>
                  <mask id="Mask-o">
                      <path class="mask" id="Mask-gelaccio-o" d="M1056.33,528.33s-19.33,2-26,31.34S1013.67,639,1027,640s26,3,40-11,34.67-44.47,34.67-44.47l15.33-38s10-38.75,0-43.12-26.61-12-34.31,1.49-11.75,36-11.75,36-.37,38.09,9.18,45.42,27.23,19.11,41.32,20,38.13-31.85,38.13-31.85l5.43-8.34"  fill="none" stroke="#000" stroke-miterlimit="10" stroke-width="34"/>
                  </mask>
                </g>
                </defs>
              </svg>