<svg width="210mm" height="297mm" version="1.1" viewbox="0 0 210 297" xmlns="http://www.w3.org/2000/svg" xmlns:xlink="http://www.w3.org/1999/xlink">   
    <clippath>
        <use xlink:href="#g21000"/>
    </clippath>
        <clippath id="clipPath26177">
             <path d="m28.043 135.8q-3.056 0-5.5831-1.7631-2.4683-1.7043-3.9376-4.9367-1.4692-3.2911-1.4692-7.8752 0-4.5253 1.4105-9.1681 1.4105-4.6428 3.82-8.8742 2.4683-4.2314 5.5831-7.5225 3.1148-3.3499 6.5235-5.2893 3.4674-1.9394 6.8173-1.9394 2.2333 0 3.585 0.94032 1.3517 0.94032 1.9394 2.4683 0.5877 1.4692 0.5877 3.2323 0 2.0569-0.70524 4.0551-0.70524 1.9394-1.8806 3.2323t-2.5859 1.2929q-0.47016 0-0.99909-0.29385-0.47016-0.29385-0.82278-1.0579 0.82278-0.5877 1.8806-2.1157 1.1166-1.528 1.8806-3.4087 0.82278-1.8806 0.82278-3.4674 0-1.3517-0.82278-2.2333-0.76401-0.88155-2.7034-0.88155-2.5271 0-5.2893 2.0569-2.7034 2.0569-5.2893 5.5244-2.5271 3.4087-4.5841 7.6401-2.0569 4.2314-3.2911 8.6392-1.1754 4.4077-1.1754 8.3453 0 5.3481 2.2333 8.3453 2.2333 3.056 5.6419 3.056 2.292 0 4.349-1.7043 2.0569-1.6456 3.6437-4.2902 1.5868-2.7034 2.5271-5.8182 0.99909-3.1148 1.2342-5.9945-2.1745-0.47016-3.5262-0.5877-1.3517-0.17631-2.5271-0.17631-0.76401 0-1.6456 0.0588-0.82278 0-1.9394 0 0.41139-1.7043 1.4105-2.3508 1.0579-0.70524 2.5859-0.70524 1.6456 0 3.4087 0.5877 1.8219 0.52893 3.5262 1.1754 1.7043 0.64647 2.9973 0.99909l-0.41139 1.8806q-1.1166 2.9385-1.8219 5.1718-0.70524 2.1745-1.1166 3.8788-0.35262 1.6456-0.52893 2.9385-0.11754 1.2929-0.11754 2.3508 0 1.1754 0.05877 2.292 0.11754 1.1166 0.17631 2.292-0.94032-0.41139-1.7043-0.99908-0.70524-0.52893-1.1166-1.3517-0.35262-0.82278-0.35262-1.8806 0-0.64647 0.05877-1.2929 0.11754-0.64647 0.35262-1.4105-2.1157 2.9385-4.8779 4.9367-2.7622 1.9982-6.2296 1.9982z"/>
             <path d="m54.666 133.28q-3.585 0-5.4068-1.9982-1.7631-1.9394-1.7631-4.8191 0-2.6446 1.2929-5.5831 1.3517-2.9385 3.5262-5.5244 2.2333-2.5859 4.8779-4.1727 2.6446-1.6456 5.2305-1.6456 1.3517 0 2.4683 0.70524 1.1754 0.70524 1.1754 2.8797 0 2.2333-1.3517 4.2314-1.2929 1.9394-3.4674 3.4674-2.1157 1.528-4.7016 2.5271-2.5271 0.94032-5.0542 1.1754-0.11754 0.5877-0.17631 1.1166t-0.05877 0.99909q0 0.88155 0.17631 1.7631 0.23508 0.88154 0.76401 1.6456 0.52893 0.70524 1.4105 1.1166 0.94032 0.41139 2.292 0.41139 2.5271 0 4.9954-1.4105 2.4683-1.4692 4.5841-3.82t3.585-5.1718l0.70524 0.52893q-1.5868 3.5262-4.0551 6.1121-2.4096 2.5859-5.2893 3.9964-2.821 1.4692-5.7595 1.4692zm-2.8797-9.8734q1.5868-0.52892 3.585-1.528 1.9982-1.0579 3.82-2.4683 1.8806-1.4105 3.056-3.1148 1.2342-1.7043 1.2342-3.585 0-0.64647-0.23508-0.99909-0.23508-0.35262-0.99909-0.35262-1.4105 0-2.9973 1.1166-1.5868 1.0579-3.056 2.821-1.4692 1.7631-2.6446 3.8788t-1.7631 4.2314z"/>
             <path d="m72.767 132.45q-2.5271 0-3.6437-1.7631-1.0579-1.7043-1.0579-4.2902 0-2.821 1.0579-6.6998t2.7622-8.169q1.7631-4.2902 3.82-8.3453 2.0569-4.1139 4.1139-7.4638 2.0569-3.3499 3.7613-5.3481 1.7631-1.9982 2.7622-1.9982 0.64647 0 1.0579 0.76401 0.41139 0.70524 0.64647 1.7631 0.23508 0.99909 0.23508 1.8219 0 1.5868-0.82278 4.1727-0.76401 2.5271-2.2333 5.7007-1.4105 3.1148-3.4087 6.3472-1.9394 3.1736-4.2902 6.1121-2.292 2.9385-4.8779 5.0542-0.35262 1.5868-0.5877 3.1148-0.17631 1.4692-0.17631 2.821 0 2.292 0.64647 3.4086 0.64647 1.1166 1.9394 1.1166 1.5868 0 3.1148-1.4105 1.5868-1.4105 2.9385-3.5262 1.4105-2.1745 2.4096-4.4665l0.88155 0.47016q-2.3508 4.9954-5.113 7.9339-2.7622 2.8797-5.9358 2.8797zm0.41139-14.34q2.0569-2.0569 3.9964-4.7016 1.9394-2.7034 3.585-5.5831 1.7043-2.8797 2.9973-5.5831 1.2929-2.7034 1.9982-4.8191 0.70524-2.1745 0.70524-3.3499 0-0.5877-0.17631-0.76401-0.11754-0.17631-0.23508-0.17631-0.47016 0-1.6456 1.528-1.1166 1.4692-2.6446 3.9964-1.528 2.5271-3.1148 5.7595-1.5868 3.2323-3.056 6.7585-1.4105 3.5262-2.4096 6.9348z"/>
             <path d="m84.58 133.45q-1.8219 0-3.056-1.2342-1.2929-1.1754-1.2929-3.6437 0-2.1157 0.94032-4.5253 0.94032-2.4683 2.5859-4.8191 1.6456-2.4096 3.7025-4.349 2.1157-1.9982 4.4077-3.1736 2.3508-1.1754 4.6428-1.1754t3.82 1.2342q1.528 1.1754 1.528 3.1736 0 1.4692-0.82277 1.9982-0.76401 0.52892-2.057 0.52892 0.11754-0.47016 0.17631-0.99908 0.11754-0.5877 0.11754-1.0579 0-1.3517-0.64647-2.292-0.64647-0.99909-2.2333-0.99909-1.6456 0-3.3499 1.1754-1.7043 1.1166-3.2911 3.056-1.5868 1.8806-2.821 4.1139t-1.9394 4.4077q-0.70524 2.1745-0.70524 3.8788 0 2.292 1.5868 2.292 1.3517 0 2.9385-1.2342 1.5868-1.2929 3.2323-3.2323 1.7043-1.9982 3.2323-4.1139 1.528-2.1157 2.7034-3.8788 0.23508-0.35262 0.29385-0.35262 0.35262 0.0588 0.88155 0.23508 0.5877 0.17631 0.99909 0.47016 0.41139 0.29385 0.41139 0.76401 0 0.52893-0.52893 1.4692-0.52893 0.88155-1.1754 2.0569-0.64647 1.1754-1.1754 2.4096-0.52893 1.1754-0.52893 2.2333 0 0.88155 0.47016 1.7631 0.47016 0.82278 1.528 0.82278 1.5868 0 4.1727-2.292 2.5859-2.3508 5.2305-6.9936l0.5877 0.5877q-1.2342 3.1736-3.1736 5.5831-1.9394 2.4096-4.1727 3.7613-2.1745 1.3517-4.2902 1.3517-2.1745 0-3.2323-1.2929-0.99909-1.2929-0.99909-2.821 0-0.35262 0.05877-0.76401 0.05877-0.47016 0.11754-0.94032-2.5271 3.4086-4.6428 5.113-2.0569 1.7043-4.2314 1.7043z"/>
             <path d="m113.67 133.98q-2.821 0-4.7016-1.8806-1.8806-1.8806-1.8806-5.6419 0-2.9385 1.1166-5.7007 1.1754-2.821 3.056-5.0542 1.8806-2.2333 4.1727-3.5262 2.292-1.3517 4.5253-1.3517 2.4096 0 3.2911 1.4105 0.88155 1.4105 0.88155 2.9385 0 1.7043-0.82278 2.9973-0.76401 1.2929-2.1157 1.2929-0.99909 0-1.7043-0.88155 0.88155-0.47016 1.528-1.8806 0.64647-1.4692 0.64647-2.7622 0-0.70524-0.29385-1.0579-0.23508-0.41139-0.99909-0.41139-1.5868 0-3.2911 1.4105-1.6456 1.4105-3.1148 3.6437-1.4105 2.2333-2.3508 4.7016-0.88155 2.4683-0.88155 4.6428 0 1.8219 0.88155 3.3499 0.88155 1.528 3.4087 1.528 2.3508 0 4.7016-1.2929 2.4096-1.2929 4.4665-3.7025 2.057-2.4096 3.2911-5.6419l0.764 0.5877q-1.3517 3.5262-3.7025 6.3472-2.3508 2.7622-5.1718 4.349-2.821 1.5868-5.7007 1.5868z"/>
             <path d="m132.65 133.98q-2.821 0-4.7016-1.8806t-1.8806-5.6419q0-2.9385 1.1166-5.7007 1.1754-2.821 3.056-5.0542 1.8806-2.2333 4.1727-3.5262 2.292-1.3517 4.5253-1.3517 2.4096 0 3.2911 1.4105 0.88154 1.4105 0.88154 2.9385 0 1.7043-0.82277 2.9973-0.76401 1.2929-2.1157 1.2929-0.99909 0-1.7043-0.88155 0.88155-0.47016 1.528-1.8806 0.64647-1.4692 0.64647-2.7622 0-0.70524-0.29385-1.0579-0.23508-0.41139-0.99909-0.41139-1.5868 0-3.2911 1.4105-1.6456 1.4105-3.1148 3.6437-1.4105 2.2333-2.3508 4.7016-0.88155 2.4683-0.88155 4.6428 0 1.8219 0.88155 3.3499 0.88154 1.528 3.4086 1.528 2.3508 0 4.7016-1.2929 2.4096-1.2929 4.4665-3.7025 2.057-2.4096 3.2911-5.6419l0.76401 0.5877q-1.3517 3.5262-3.7025 6.3472-2.3508 2.7622-5.1718 4.349-2.821 1.5868-5.7007 1.5868z"/>
             <path d="m149.58 132.22q-2.292 0-3.4087-1.4692-1.1166-1.4105-1.1166-3.4674 0-1.3517 0.47016-3.4087 0.52893-2.0569 1.3517-4.2902 0.82278-2.292 1.8806-4.2902 1.1166-1.9982 2.3508-3.2324 1.2342-1.2929 2.4096-1.2929 0.52893 0 0.88155 0.35261 0.41139 0.29385 0.41139 0.94032 0 0.70524-0.94032 2.292-0.88155 1.5868-2.1157 3.6437-1.2342 2.057-2.1745 4.349-0.88155 2.2332-0.88155 4.2902 0 2.1157 0.70524 2.821 0.70524 0.70524 2.1745 0.70524 1.9982 0 4.2314-1.9982 2.292-1.9982 4.8191-6.9936l0.52893 0.5877q-1.7043 5.0542-4.9367 7.7576-3.1736 2.7034-6.641 2.7034zm7.0524-26.917q-0.94032 0-1.7043-0.47015-0.70524-0.47016-0.70524-1.4692 0-1.2342 1.4105-2.1157 1.4692-0.94032 2.8797-0.94032 0.88155 0 1.4105 0.41139t0.52893 1.4105q0 1.1166-1.2342 2.1745-1.1754 0.99908-2.5859 0.99908z"/>
             <path d="m163.57 132.57q-2.5271 0-3.585-1.5868-1.0579-1.528-1.0579-3.7613 0-1.8219 0.5877-3.7613 0.5877-1.9394 1.528-3.6437 0.99909-1.7043 2.1745-2.7622 1.2342-1.0578 2.4683-1.0578 0.29385 0 0.5877 0.11754 0.35262 0.0588 0.64647 0.17631-0.52893 0.47016-1.2929 1.7631-0.70524 1.2342-1.3517 2.8797-0.64646 1.5868-1.1166 3.1736-0.41139 1.5868-0.41139 2.7034 0 1.7631 0.5877 2.5859 0.58769 0.76401 1.528 0.76401 1.2342 0 2.9385-1.2929 1.7043-1.3517 3.3499-3.4087-1.6456-1.3517-2.5859-3.5262-0.88155-2.2333-0.88155-4.5253 0-1.9394 0.64647-3.6437 0.70524-1.7043 1.9982-2.7034 1.2929-1.0578 3.1148-1.0578 2.4096 0 3.2323 1.2929 0.82278 1.2929 0.82278 3.2324 0 2.292-1.1166 5.113-1.1166 2.7622-2.821 5.3481 1.0579 0.5877 2.2332 0.5877 0.94032 0 2.1157-0.35262 1.1754-0.41139 2.292-1.3517 1.1754-0.94032 1.8806-2.5271l0.70524 0.5877q-1.1754 2.7622-3.3499 3.9376-2.1157 1.1166-4.0551 1.1166-0.76401 0-1.4692-0.11754-0.70524-0.17631-1.3517-0.47016-1.9982 2.6446-4.4077 4.4077-2.3508 1.7631-4.584 1.7631zm8.6392-8.6392q1.4692-2.1745 2.4096-4.5253 0.99909-2.4096 0.99909-4.5253 0-1.7043-0.52893-2.4683-0.47016-0.82278-1.2342-0.82278-1.1754 0-2.4096 1.7043t-1.2342 4.2902q0 1.7043 0.47016 3.4674 0.52893 1.7043 1.528 2.8797z"/>
        </clippath> 
     <path class="path" d="m39.807 140.35c0.29958-0.0472 0.59799-0.10256 0.89873-0.14163 3.8908-0.50549 7.8107-0.86156 11.713-1.2451 10.368-1.019 7.627-0.74489 19.121-1.7226 4.3063-0.28837 8.6101-0.61603 12.919-0.86511 9.2015-0.53191 20.256-0.98779 29.434-1.2523 9.2124-0.26552 20.615-0.46713 29.859-0.41303 4.4523 0.0261 8.9032 0.16416 13.355 0.24624 14.4 0.61154 7.5949 0.24631 20.418 1.0487l2.2764-1.6387c-13.395-0.35001-6.3184-0.18773-21.231-0.47055-4.5305-0.0261-9.0609-0.09-13.591-0.0785-9.3386 0.0238-20.613 0.23468-29.93 0.45996-13.836 0.33456-27.67 0.80799-41.494 1.4773-9.9317 0.56083-19.86 1.1902-29.798 1.6369l-3.9502 2.9583z" stroke-width="1.6458" stroke="#d09751"/>
    <path class = "text" d="m40.033 108.6 4.687-3.4562 2.7832-4.7174 0.33634-5.1192s-0.51732-2.186-2.7646-2.8208c-2.2473-0.6348-8.7083 1.5183-8.4157 1.7568 0.29257 0.23859-5.132 4.302-5.132 4.302l-4.0525 4.8058-3.0897 5.1313-2.7551 6.6365-1.2535 6.0644-0.28172 3.9291 1.6983 6.9816s3.568 4.5445 6.9885 4.926c3.4205 0.38145 5.3233-1.042 5.3233-1.042l3.3185-2.5176 2.9602-3.1815 3.0704-5.1897 5.3221-3.7491-1.3358-7.3197-14.95-0.98225-1.8952 4.8938 3.8908-1.2873 3.8423-0.0549 3.7669 0.39811 2.3038 0.74747 1.5495 0.31525s4.633-3.6357 2.5416-2.8725c-2.0914 0.76323-4.08 6.1428-4.08 6.1428l-1.9246 6.8504-0.73094 5.2252s-1.0158 1.9134 1.6828 4.1322c2.6986 2.2188 2.0639-5.7773 2.0639-5.7773l4.9461-11.748 6.3939-7.119 9.7548-2.4104 3.6497 2.8735-1.3673 7.9368-3.7744 3.2952-7.3443 2.6206-3.6299 1.1303-0.27556-0.84707 0.02381-1.3914s5.6325-1.6123 7.5402-2.8623 5.2781-3.1255 5.5283-5.6648 0.60364-3.5184-0.76106-4.0867c-1.3647-0.5683-3.4848-0.27334-3.4848-0.27334s-3.3752 0.94974-4.6729 2.4952-3.5651 4.272-3.5651 4.272l-1.8637 2.9792-0.77124 4.3378 0.02617 4.4616 2.5452 2.3901 3.9806 0.4277s1.5202-0.0534 4.0197-1.3803c2.4995-1.3269 4.2337-2.3728 4.2337-2.3728l2.4552-2.7215 2.6118-2.9992 2.2152-2.4506 3.2185-2.3985 2.904-3.149 2.599-3.2148 3.3649-5.6524 2.6335-4.7806 1.3801-3.4395 0.64502-3.4841-0.37633-2.4909s-0.6054-3.0074-3.7788 1.9242c-3.1734 4.9315-5.7166 8.8156-5.7166 8.8156l-2.0971 4.0942-1.8114 3.8864-1.5313 3.8584-1.1438 4.0563-0.85834 4.3327-0.49629 4.8752s0.44722 3.0883 1.9087 3.3553c1.4615 0.26702 3.1062 0.10431 3.1062 0.10431l2.2749-0.97415 2.9723-2.9686 1.1582-1.3235-0.96628-3.5327 6.406-8.5502 12.491-6.2386 5.722 4.0474-0.37371 5.9433-2.3039 0.87232-2.1012-0.29336 0.59954-2.5124-0.11256-2.4625s-0.81885-1.2064-2.279-1.4767c-1.4601-0.27026-2.9423-0.74154-5.2295 0.6052-2.2872 1.3468-3.5674 2.8503-3.5674 2.8503l-2.7383 2.8654-2.2233 3.1828-1.2055 3.3572-0.95485 4.5995 0.9654 2.4209s1.1887 0.87289 2.3616 0.53036c1.1729-0.34252 3.8805-1.4733 4.1861-1.8985s2.5703-2.9433 2.5703-2.9433l1.5932-1.5183 3.9672-3.9679 1.3736-2.0511 2.0916-3.4034-3.0766 5.7878-1.7602 3.2044-1.2918 3.3825s-0.57142 2.1076 0.94077 2.2167c1.5122 0.10908 3.8082 0.26307 3.8082 0.26307l3.4093-1.6488 2.2618-1.9624 1.8576-2.1799 0.94557-1.4304-0.89487-4.1716 5.1737-6.9345 8.5798-2.9945 5.8597 2.5391-0.58695 6.0984-1.8885 3.0565-2.8467 0.0958-1.4635-1.3694 2.2974-2.4023 1.0489-2.5397-0.3195-2.5836s-1.4199-1.9302-4.138-0.36101c-2.7181 1.5692-5.4852 3.9942-5.4852 3.9942l-2.9317 4.1723-1.289 4.1843 0.0956 4.5945 1.9318 2.9234s3.899 0.45804 4.9874 0.27997c1.0883-0.17806 4.585-1.5312 4.585-1.5312l3.2964-2.3558 2.6171-3.1324 1.0844-1.2997-0.85615-3.3718 3.2411-5.9038 5.2463-3.9742 6.4277-0.98849 3.8664 2.4206 0.0604 5.4374-3.7981 3.8844-2.4567-1.3395-0.84651-1.1832 3.587-1.083 0.9448-2.604-0.62183-2.5296s-1.214-1.7901-3.573-0.95828c-2.359 0.83182-4.923 3.3124-4.923 3.3124l-2.2528 2.379-2.1955 3.5322-0.52652 3.1303-0.0407 4.3805 2.0516 3.0704s0.39334 0.68741 2.7063 0.76362c2.313 0.0762 6.2377-1.4335 6.2377-1.4335l3.1771-2.2791 1.7662-1.6663 2.5447-2.945 2.3882-3.5521 2.2028-3.8714 1.6628-3.0513 1.8944-4.8032-0.89538 3.4235-3.2326 6.0995-1.4571 3.2938-1.3727 3.8586s-0.91318 2.8736-1e-3 3.8638c0.91216 0.99019 3.219 1.4999 3.219 1.4999s1.7648 0.30461 3.0754-0.39645c1.3106-0.70106 4.4674-3.4316 4.4674-3.4316l1.695-1.9071 2.4928-3.011 1.5607-2.8065 1.6487-2.2534s2.424-5.6709 1.8689-3.1043-3.5952 5.4559-3.5952 5.4559l-1.4172 3.2858-0.80378 4.1283 0.47364 2.8403 2.5844 1.5262 3.5228-1.1452 2.6312-2.2485 2.3774-2.4737 2.07-3.0662 1.4942-3.2752 1.0044-3.4972-0.58426-2.8974-1.4488-1.3871s-0.59972-1.0178-3.0114 0.35487-3.0593 4.0511-3.0593 4.0511l0.22225 3.8489 0.97113 3.2915 3.118 2.694 2.8774 0.66294 3.6006-0.89678 2.3452-1.8402 1.0484-1.8936 1.0525-5.0914-1.8787-4.6232-7.2899-4.9707-5.2574-1.9213-5.4583-0.33452-3.0229-1.6396-1.2996-0.56418-1.4805-0.60852-2.1485 0.39004-1.4642 1.073 0.33478 1.2351 1.9108 0.37412 1.5778-0.84239 0.86964-0.9386-1.1165-1.3472-9.7246-2.8256-18.015-2.6154s-6.7797 2.7545-7.8716 2.5164c-1.0919-0.23804-8.0086-3.4622-8.0086-3.4622s-16.023-4.9788-16.427-5.1547-21.251-2.0762-21.251-2.0762l-8.5443 4.7352-19.818-1.8264-22.136-4.8786-13.554 10.14-4.1265 14.653 0.63577 17.314 5.9541 10.852 5.1663 5.6036 7.6678 1.375 5.6147-3.6848 3.4728 0.0269 7.0232-0.43945 9.0885-0.71895 8.9245-0.59261 12.106-0.76897 9.0698-0.53708 8.4796-0.2391 9.0761-0.37197 11.217-0.33106 10.42-0.20176 10.272-0.075 10.647-0.0454 10.116 0.20652 10.448 0.24792 9.0965 0.48168 2.5514 0.47772" clip-path="url(#clipPath26177)" fill="none" stroke="#dca559" stroke-width="13.965"/>
</svg>